<?xml version="1.0" encoding="UTF-8" standalone="no"?><!DOCTYPE svg PUBLIC "-//W3C//DTD SVG 1.1//EN" "http://www.w3.org/Graphics/SVG/1.1/DTD/svg11.dtd"><svg width="100%" height="100%" viewBox="0 0 27 28" version="1.1" xmlns="http://www.w3.org/2000/svg" xmlns:xlink="http://www.w3.org/1999/xlink" xml:space="preserve" xmlns:serif="http://www.serif.com/" style="fill-rule:evenodd;clip-rule:evenodd;stroke-linejoin:round;stroke-miterlimit:2;"><path d="M22.749,12.154c-1.916,2.824 -5.732,3.677 -8.686,1.883c-0.687,-0.416 -1.596,-1.141 -2.566,-2.044c-5.42,1.467 -11.497,4.197 -11.497,7.325c0,4.681 13.558,8.467 18.241,8.467c4.678,-0 8.469,-3.786 8.469,-8.467c0,-3.019 -1.582,-5.668 -3.961,-7.164" style="fill:#42ab34;fill-rule:nonzero;"/><path d="M22.749,12.154c0.063,-0.093 0.12,-0.187 0.177,-0.281c1.856,-3.042 0.882,-7.006 -2.165,-8.852c-3.044,-1.851 -13.369,-4.734 -15.22,-1.693c-1.431,2.354 2.635,7.571 5.956,10.665c2.679,-0.725 5.196,-1.138 6.744,-1.138c1.657,-0 3.2,0.476 4.508,1.299" style="fill:#42ab34;fill-rule:nonzero;"/></svg>